<?xml version="1.0" encoding="UTF-8"?>
<!-- Created with Grafika (https://www.grafika.cc/) -->
<svg xmlns="http://www.w3.org/2000/svg" xmlns:svg="http://www.w3.org/2000/svg" xmlns:xlink="http://www.w3.org/1999/xlink" width="1024" height="1024" viewBox="0 0 1792.17 3743.21" preserveAspectRatio="xMidYMid meet">
	<g transform="matrix(1, 0, 0, 1, 929.5968017578125, 2156.309326171875)">
		<g transform="matrix(2.593852996826172, -0.017498139292001724, 0.017498139292001724, 2.593852996826172, -33.50943374633789, -284.7049255371094)">
			<path transform="matrix(1.1939058303833008, -0.03066147305071354, 0.03066147305071354, 1.1939058303833008, -340.6136474609375, -702.69873046875)" d="M516.46,929.87 C487.24,902.83 461.88,881.31 453.7,876.62 L449.5,874.2 L431,872.03 C392.23,867.48 371.59,861.72 356.09,851.14 L350.4,847.26 L347.96,849.23 C346.62,850.32 343.26,852.37 340.51,853.78 L335.5,856.35 L330,856.25 C326.98,856.2 322.48,856.2 320,856.24 C317.53,856.29 311.9,856.32 307.5,856.3 L299.5,856.28 L289.5,853.02 C274.9,848.27 264.78,842.65 261.34,837.39 C260.44,836.02 257.85,829.24 255.57,822.31 L251.44,809.72 L244.47,805.78 C240.64,803.62 236.33,800.74 234.9,799.38 L232.29,796.91 L224.54,777.7 L216.79,758.5 L210.14,755.31 L203.5,752.12 L199.24,748.48 L194.99,744.83 L192.29,740.24 L189.6,735.64 L189.21,727.07 L188.82,718.5 L190.93,708.24 C192.09,702.59 194.66,692.69 196.64,686.24 C198.62,679.78 200.43,673.83 200.67,673 L201.1,671.5 L199.73,669.63 L198.36,667.77 L195.02,669.49 L191.68,671.22 L186,671.73 L180.33,672.25 L176.57,670.47 L172.82,668.69 L170.32,664.91 L167.83,661.14 L167.8,653.32 L167.77,645.5 L170.03,636.29 L172.3,627.08 L162,610.79 C156.34,601.83 144.98,583.76 136.75,570.63 L121.78,546.76 L121.27,542.94 L120.75,539.12 L123.82,532.57 L126.89,526.02 L131.8,521.1 L136.72,516.19 L166.11,506.63 C182.27,501.37 197.36,496.77 199.62,496.42 L203.75,495.78 L209.12,497.36 L214.5,498.93 L217.64,501.8 L220.77,504.68 L243.89,539.34 L267.01,574 L268.88,574 C269.91,574 272.61,573.34 274.88,572.54 L279,571.09 L284.93,566.29 C288.19,563.66 293.27,560.04 296.21,558.26 L301.56,555.02 L306.5,554.1 L311.44,553.18 L317.17,554.19 L322.91,555.2 L326.9,557.85 C329.09,559.31 336.88,565.04 344.19,570.59 C366.19,587.27 396.26,606.85 410.07,613.47 L417.44,617 L419.97,617.01 L422.5,617.02 L427.54,619.91 C443.4,629.01 476.72,667.23 501.23,704.45 C505.6,711.08 510.95,718.63 513.13,721.23 L517.09,725.96 L528.54,735.12 L540,744.28 L540,747.64 C540,749.49 539.69,751 539.31,751 C538.1,751 520.75,737.42 513.71,730.98 L506.93,724.76 L497.31,710.13 C486.09,693.07 473.53,676.24 459.94,660.04 C449.01,647.01 433.9,631.59 428.19,627.63 L424.38,624.99 L418.63,623.49 C405.25,620.01 377.55,603.23 343.25,577.85 C338.16,574.08 333.66,571 333.25,571.01 C332.84,571.01 331.48,572.8 330.24,574.97 L327.98,578.93 L326.49,578.36 C324.45,577.58 324.62,575.76 327.11,571.54 L329.22,567.97 L327.93,566.41 C326.11,564.22 320.08,561.29 315.7,560.47 L311.99,559.77 L307.74,560.43 C305.41,560.8 302.63,561.74 301.57,562.53 L299.65,563.98 L300.94,566.39 L302.24,568.81 L301.56,569.9 C301.19,570.51 300.25,571 299.47,571 L298.06,571 L296.72,568.43 L295.37,565.85 L294.15,567.32 L292.93,568.79 L294.66,572.4 L296.38,576.02 L295.12,577.26 L293.86,578.5 L292.01,576.24 C290.99,574.99 289.96,573.42 289.71,572.74 L289.26,571.5 L287.77,572.5 C286.95,573.05 285.09,574.34 283.65,575.36 C282.2,576.39 277.35,578.44 272.87,579.93 L264.73,582.63 L262.76,587.92 L260.78,593.21 L255.64,595.48 C252.81,596.73 246.94,598.75 242.6,599.97 L234.71,602.19 L232.24,601.06 L229.77,599.94 L230.44,602.72 C230.82,604.25 232.24,607.21 233.6,609.29 L236.08,613.08 L239.14,614.94 C243.07,617.33 256.03,621.61 265.08,623.52 L272.13,625 L281.45,625 L290.77,625 L295.83,623.37 L300.89,621.73 L301.45,616.62 C301.75,613.8 301.89,608.35 301.75,604.5 L301.5,597.5 L303.61,597.2 L305.71,596.9 L306.36,601.59 C306.71,604.17 307,609.96 307,614.45 L307,622.62 L313.75,628.47 C317.46,631.69 323.66,636.67 327.52,639.53 C331.38,642.39 335.05,645.36 335.68,646.12 C336.3,646.88 338.64,651.1 340.88,655.5 L344.94,663.5 L343.03,665.42 L341.11,667.34 L339.42,665.94 C338.5,665.17 336.28,661.33 334.49,657.4 C332.7,653.47 330.67,649.92 329.99,649.49 L328.74,648.72 L329.43,655.61 C329.82,659.4 331.21,667.9 332.52,674.5 C338.62,705.12 348.73,730.17 364.73,754.35 L371.24,764.2 L380.7,774.06 L390.16,783.91 L397.51,789.54 L404.86,795.17 L415.77,800.48 L426.68,805.78 L430.34,808.99 C432.35,810.76 434,812.73 434,813.36 C434,814 433.07,815.1 431.94,815.81 L429.87,817.1 L426.39,814.04 C422.57,810.69 409.98,804 407.49,804 L405.92,804 L386.71,819.32 C376.14,827.75 364.91,836.58 361.75,838.94 C358.59,841.31 356,843.36 356,843.52 C356,843.67 358.26,845.24 361.02,847.01 C375.32,856.19 400.9,862.75 435,865.99 C441.33,866.59 448.15,867.52 450.16,868.05 L453.81,869.03 L459.7,872.96 C462.95,875.13 470.3,880.83 476.05,885.63 C496.47,902.7 531.23,934.45 531.79,936.54 C531.94,937.14 531.25,938.37 530.25,939.28 L528.42,940.93 L516.46,929.87 ZM330,849.56 C330,849.32 329.58,848.86 329.07,848.54 L328.14,847.97 L327.51,848.98 L326.88,850 L328.44,850 C329.3,850 330,849.8 330,849.56 ZM325.02,839.43 L326.26,835.01 L325.58,830.8 C324.63,824.85 321.8,819.05 317.97,815.21 L314.69,811.92 L312.09,814.39 C310.67,815.75 307.5,817.99 305.07,819.36 L300.63,821.87 L303.57,822.53 C305.18,822.89 309.11,823.89 312.29,824.74 L318.08,826.29 L319.09,828.17 C319.65,829.21 320.34,832.18 320.64,834.78 L321.17,839.5 L320.17,843.84 L319.17,848.19 L321.47,846.02 L323.78,843.86 L325.02,839.43 ZM314.96,845.07 L316,843.13 L316,837.01 L316,830.9 L312.27,829.34 L308.54,827.78 L300.76,827.25 L292.98,826.71 L290.99,828.51 L289,830.31 L289,834.96 L289,839.62 L290.25,841.29 C290.94,842.21 293.3,843.85 295.5,844.94 L299.5,846.92 L306.71,846.96 L313.93,847 L314.96,845.07 ZM341.32,845.85 C345.62,843.58 400,801.17 400,800.09 C400,799.74 397.24,797.45 393.88,794.99 C386.66,789.74 372.52,775.78 366.53,768 C359.18,758.46 352.41,747.81 347.63,738.27 L343,729.05 L340.7,729.92 L338.4,730.8 L335.63,730.27 L332.87,729.74 L329.53,726.6 L326.2,723.45 L325.02,719.09 L323.85,714.73 L324.45,712.34 C324.78,711.03 325.94,709.06 327.03,707.97 L329,706 L331.45,706 L333.9,706 L332.42,701.25 C331.6,698.64 329.64,691.16 328.05,684.64 L325.16,672.78 L310.94,651.41 L296.72,630.03 L294.11,630.77 C292.67,631.17 286.89,631.5 281.25,631.5 C275.61,631.5 271,631.76 271,632.08 C271,632.4 269.31,634.38 267.25,636.47 L263.5,640.27 L258.29,642.69 L253.08,645.11 L246.09,645.7 L239.11,646.28 L232.8,645.06 L226.5,643.84 L220,640.67 L213.5,637.51 L207.5,631.42 L201.5,625.32 L197.33,617.41 L193.16,609.5 L192.01,603.09 L190.86,596.69 L191.49,591.59 L192.13,586.5 L195.1,580.31 L198.07,574.11 L201.96,571.04 C207.1,566.96 213.75,564.1 220.77,562.94 L226.5,561.99 L232,563.11 C235.03,563.73 239.7,565.34 242.38,566.7 L247.27,569.17 L252,573.6 L256.74,578.03 L258.86,577.25 L260.98,576.46 L237.65,541.48 L214.31,506.5 L210.62,504.75 L206.93,503 L202.81,503 L198.69,503 L172.09,511.55 C157.47,516.24 143.76,520.84 141.64,521.75 L137.78,523.4 L136.27,525.71 L134.75,528.02 L135.35,531.01 L135.95,534 L155.59,565.25 C166.39,582.44 190.58,620.98 209.36,650.91 L243.5,705.31 L247.41,708.91 C249.56,710.88 253.78,714.75 256.78,717.5 C259.78,720.25 264.26,725.32 266.73,728.77 L271.21,735.05 L272.65,739.77 L274.1,744.5 L273.8,748.86 L273.5,753.21 L282,755.67 L290.5,758.12 L296.51,761.48 L302.52,764.83 L307.51,769.91 C310.26,772.7 314.17,777.73 316.2,781.1 L319.91,787.21 L320.56,791.52 L321.2,795.83 L319.64,801.16 L318.07,806.5 L322.48,811 L326.89,815.5 L329.47,821 L332.04,826.5 L331.86,834.5 L331.67,842.5 L334.98,844.75 C338.85,847.38 338.52,847.32 341.32,845.85 ZM293,753.82 L289.5,751.46 L287.75,747.98 L286,744.5 L286,740.13 L286,735.76 L289.88,731.88 L293.76,728 L296.48,728 C297.98,728 300.69,728.71 302.51,729.57 L305.83,731.15 L308.35,734.82 C309.74,736.85 311.17,739.71 311.53,741.2 L312.19,743.89 L311.07,747.3 L309.94,750.71 L307.53,752.97 L305.12,755.23 L300.81,755.7 L296.5,756.18 L293,753.82 ZM305.25,748.89 L307,746.78 L307,743.42 L307,740.07 L303.85,736.48 L300.7,732.9 L297.2,733.2 L293.7,733.5 L291.77,736.09 L289.85,738.68 L290.58,742.57 L291.31,746.46 L294.19,749.35 L297.08,752.23 L300.29,751.61 L303.5,750.99 L305.25,748.89 ZM272.5,718.77 C268.76,717.49 265.27,714.39 263.29,710.58 L261.78,707.67 L262.28,703.21 L262.78,698.76 L265.91,695.63 L269.04,692.5 L273.45,692.5 L277.85,692.5 L280.68,694.59 C282.23,695.74 284.51,698.17 285.75,699.99 L288,703.3 L287.99,706.9 L287.97,710.5 L286.74,712.9 C285.24,715.81 281.4,718.63 278,719.3 L275.5,719.79 L272.5,718.77 ZM281.03,713.18 L283.27,711.36 L283.27,707 L283.27,702.63 L280.12,699.82 L276.97,697 L273.64,697 L270.31,697 L268.42,699.08 L266.54,701.17 L266.65,705.28 L266.75,709.39 L269.89,712.2 L273.03,715 L275.9,715 L278.78,715 L281.03,713.18 ZM310.5,694.6 C306.7,692.92 304.5,690.45 302.47,685.57 L300.85,681.72 L301.5,679.11 C301.85,677.67 303.32,675.26 304.76,673.75 L307.37,671 L310.28,671 L313.19,671 L316,672.66 L318.81,674.32 L321.07,678.34 L323.33,682.37 L323.33,686.84 L323.33,691.32 L320.61,693.66 L317.89,696 L315.69,695.96 C314.49,695.94 312.15,695.33 310.5,694.6 ZM317.43,690.43 L319,688.86 L319,686.36 C319,683.44 317.56,680.39 314.7,677.25 C312.26,674.58 310.31,674.41 307.83,676.65 L306,678.31 L306,680.7 C306,682.02 306.68,684.42 307.51,686.02 L309.03,688.95 L311.76,690.43 C315.24,692.32 315.53,692.32 317.43,690.43 ZM279.29,687.04 L276.08,685.08 L273.93,680.87 L271.78,676.65 L272.32,672.67 L272.85,668.69 L275.3,666.25 L277.75,663.8 L281.23,663.8 L284.71,663.8 L287.77,665.38 L290.84,666.97 L293.51,672.43 L296.18,677.89 L295.52,680.92 L294.85,683.95 L291.85,686.47 L288.85,689 L285.67,689 L282.5,688.99 L279.29,687.04 ZM289.17,683.35 L291,681.69 L291,679.41 C291,676.04 289.42,672.47 286.87,670.1 L284.62,668 L282.01,668 L279.4,668 L278.2,669.2 L277,670.4 L277,673.75 L277,677.1 L278.55,680.1 L280.1,683.1 L282.3,683.99 C285.6,685.32 287.15,685.17 289.17,683.35 ZM245.64,680.4 L241.82,677.8 L240.41,674.43 C239.63,672.58 239,669.65 239,667.91 L239,664.76 L242.88,660.88 L246.76,657 L250.43,657 L254.1,657 L257.01,658.51 L259.92,660.01 L262.46,664.34 L265,668.68 L265,672.44 L265,676.2 L261.6,679.6 L258.2,683 L253.83,683 L249.46,683 L245.64,680.4 ZM257.66,677.52 L259.77,676.05 L260.42,673.47 L261.07,670.89 L258.86,666.97 L256.65,663.04 L253.38,661.96 L250.1,660.88 L248.05,661.97 C246.92,662.58 245.36,664.07 244.57,665.29 L243.15,667.5 L243.69,670.25 L244.23,673 L247.65,676 L251.07,679 L253.31,679 C254.55,679 256.5,678.34 257.66,677.52 ZM289.5,660.59 C287.85,659.86 285.51,658.18 284.3,656.86 C281.76,654.11 279,647.97 279,645.09 L279,643.11 L281.25,640.59 L283.5,638.07 L286,637.88 C287.38,637.77 289.51,637.76 290.75,637.84 L293,638 L296.86,641.86 L300.73,645.73 L301.4,649.31 L302.07,652.89 L300.58,656.45 L299.1,660.01 L296.48,661.01 C293.26,662.23 293.19,662.23 289.5,660.59 ZM295.8,655.8 L297,654.6 L297,651.25 L297,647.91 L294.59,645.5 C293.26,644.17 291.01,642.79 289.59,642.43 L287,641.78 L285.5,642.36 L284,642.94 L284,645.52 C284,652.67 291.98,659.62 295.8,655.8 ZM174.5,567.58 C172.85,566.85 170.21,564.87 168.64,563.2 L165.77,560.15 L165.28,555.78 L164.79,551.41 L167.43,548.27 L170.07,545.13 L173.61,543.96 L177.16,542.79 L181.6,544.48 L186.03,546.18 L188.56,549.5 L191.1,552.81 L191.65,556.25 L192.21,559.69 L190.54,562.92 L188.87,566.16 L185.47,567.58 C181.29,569.33 178.41,569.33 174.5,567.58 ZM185.43,562.43 L187,560.86 L187,557.86 C187,556.22 186.54,554 185.97,552.94 C184.66,550.5 179.87,548 176.5,548 L173.91,548 L171.36,550.55 L168.81,553.1 L169.44,555.8 L170.06,558.5 L173.24,561.25 L176.42,564 L180.14,564 L183.86,564 L185.43,562.43 ZM220.5,552.09 C215.94,550.96 213.35,549.3 211.01,546.01 L208.88,543.02 L208.31,539.53 L207.74,536.04 L209.29,533.67 L210.85,531.31 L213.9,530.04 L216.96,528.77 L219.4,529.39 C222.58,530.18 227.7,534.53 229.45,537.9 C230.21,539.37 231.13,542.15 231.49,544.08 L232.15,547.6 L230.32,549.76 L228.5,551.91 L226,552.37 C224.63,552.63 222.15,552.5 220.5,552.09 ZM227,545.25 L226.99,542.5 L225.05,539.31 C223.98,537.56 222.16,535.62 221,535 L218.9,533.88 L216.2,534.19 L213.5,534.5 L213.17,536.84 L212.84,539.19 L214.06,542.14 L215.28,545.08 L217.89,546.5 L220.5,547.92 L223.75,547.96 L227,548 L227,545.25 ZM285.41,841.83 L283.78,838.67 L284.26,833.65 L284.74,828.62 L288.25,825.41 L291.76,822.19 L287.34,821.53 C284.91,821.16 277.76,819.19 271.46,817.15 C265.16,815.11 260,813.61 260,813.81 C260,814.02 261.39,818.65 263.08,824.1 L266.16,834.02 L269.33,836.44 C272.41,838.78 284.71,845 286.28,845 L287.05,845 L285.41,841.83 ZM303.22,813.08 L307.82,810.16 L310.57,805.47 L313.31,800.79 L313.77,796.08 L314.22,791.37 L311.51,786.02 L308.8,780.67 L303.73,775.31 L298.67,769.96 L291.09,766.17 L283.5,762.37 L277.13,761.02 L270.76,759.68 L269.75,761.59 C269.19,762.64 265.83,766.37 262.28,769.88 L255.83,776.26 L250.1,775.74 L244.37,775.22 L238.94,772.48 C235.95,770.98 232.24,768.85 230.69,767.76 C229.15,766.67 227.72,765.95 227.51,766.16 C227.3,766.36 229.56,772.6 232.53,780.02 L237.93,793.5 L239.97,795.65 C244.13,800.02 262.94,808.12 281.5,813.53 L289.5,815.86 L294.05,815.93 L298.61,816 L303.22,813.08 ZM286,810.99 C281.33,809.36 275.82,807.29 273.77,806.38 L270.04,804.71 L267.89,800.28 L265.75,795.85 L266.36,791.41 C266.69,788.96 267.64,785.67 268.46,784.08 L269.95,781.19 L273.73,778.85 L277.5,776.5 L286.6,776.5 L295.69,776.5 L297.34,777.87 L298.99,779.24 L300.5,784.3 L302,789.36 L301.92,796.93 L301.84,804.5 L300.67,809 L299.5,813.5 L297,813.72 L294.5,813.93 L286,810.99 ZM296.54,806.88 C296.91,805.71 297.23,801.08 297.25,796.58 L297.29,788.4 L296.09,784.78 L294.9,781.16 L290.87,780.48 L286.84,779.8 L282.17,780.5 C279.6,780.88 276.67,781.64 275.67,782.18 L273.83,783.16 L272.42,786.55 L271,789.94 L271,793.86 L271,797.78 L272.88,800.1 L274.76,802.42 L284.13,805.63 C289.28,807.4 294.03,808.88 294.68,808.92 L295.87,809 L296.54,806.88 ZM259.05,764.33 L263.15,759.88 L265.05,755.69 L266.96,751.5 L266.96,747 L266.96,742.5 L265.13,738.49 C260.99,729.37 247.31,716.07 235,709.19 C231.98,707.5 226.69,705.35 223.25,704.4 L216.99,702.67 L217.18,700.09 L217.37,697.5 L211.5,688.5 L205.64,679.5 L203.77,685.5 C199.95,697.74 196.97,710.47 196.08,718.37 L195.16,726.5 L195.91,730.5 C196.32,732.7 197.4,735.91 198.3,737.64 L199.94,740.78 L203.72,743.74 C205.8,745.37 211.71,748.87 216.86,751.51 C222.01,754.16 227.41,757.31 228.86,758.52 C232.81,761.82 242.52,767.07 247.25,768.47 L251.43,769.7 L253.19,769.24 C254.16,768.99 256.79,766.78 259.05,764.33 ZM236.63,760.54 C225.54,755.54 223.6,754.09 220.89,748.79 L219,745.08 L219,742.29 L219.01,739.5 L220.91,736.39 L222.8,733.27 L227.22,731.14 L231.63,729 L237.7,729 L243.77,729 L248.87,730.65 L253.96,732.29 L254.58,735.59 L255.2,738.89 L254.09,747.2 C253.48,751.76 252.52,757.18 251.95,759.24 L250.91,762.98 L249.02,763.99 C247.98,764.54 246.99,765 246.82,765 C246.64,764.99 242.06,762.99 236.63,760.54 ZM248.7,752.92 C249.37,749.39 249.93,744.13 249.95,741.23 L250,735.95 L247.25,734.83 L244.5,733.71 L238,733.67 L231.5,733.63 L228.37,735.28 C224.91,737.1 224,738.73 224,743.12 L224,746.07 L225.72,748.7 L227.45,751.33 L236.47,755.64 C241.44,758.02 245.95,759.82 246.5,759.65 L247.5,759.34 L248.7,752.92 ZM339.76,725.17 L341.03,724.37 L338.18,717.43 L335.34,710.5 L333.62,710.17 L331.9,709.83 L330.45,711.04 L329,712.24 L329,715.17 L329,718.1 L330.5,721 C332.75,725.35 336.69,727.12 339.76,725.17 ZM231.25,697.75 C230.19,695.96 220.1,679.88 208.84,662 C197.57,644.13 175.14,608.47 158.98,582.76 L129.61,536.02 L128.82,537.26 C128.39,537.94 128.02,539.85 128.02,541.51 L128,544.52 L145.25,572.05 C154.74,587.2 176.45,621.57 193.5,648.42 L224.5,697.25 L228.5,699.06 C230.7,700.05 232.66,700.89 232.85,700.93 C233.04,700.97 232.32,699.54 231.25,697.75 ZM188.64,664.86 L193.17,663.72 L193.64,662.49 L194.11,661.27 L185.81,648.14 L177.5,635.02 L176.26,639.2 C175.58,641.5 174.73,646.16 174.38,649.55 L173.75,655.72 L174.96,659.37 L176.16,663.02 L178.83,664.47 C182.12,666.26 182.96,666.29 188.64,664.86 ZM322.12,649.94 L321.5,643.38 L314.5,637.54 C310.65,634.32 306.43,630.75 305.12,629.6 L302.73,627.5 L312.53,642.26 C317.91,650.37 322.42,656.9 322.53,656.76 C322.65,656.62 322.46,653.55 322.12,649.94 ZM254.07,640 L257.63,639.01 L261.82,635.43 C264.12,633.46 266,631.43 266,630.92 L266,630 L264.01,630 C262.92,630 257.86,628.7 252.76,627.1 L243.5,624.21 L237.68,623.59 C234.47,623.24 230.41,622.36 228.65,621.63 C224.34,619.83 219.11,614.45 216.87,609.52 L215.04,605.5 L215.02,599.9 L215,594.3 L217.25,590.98 L219.5,587.67 L223.15,585.79 L226.81,583.9 L232.65,583.57 L238.5,583.24 L244.84,580.79 L251.19,578.34 L247.84,575.51 C246,573.95 242.03,571.51 239,570.09 L233.5,567.5 L225,567.5 L216.5,567.5 L211.9,569.79 C206.23,572.61 201.53,577.11 198.67,582.45 L196.5,586.5 L196.51,596.5 L196.53,606.5 L200.48,613.93 L204.43,621.36 L209.87,627.22 L215.3,633.09 L219.42,635.51 C221.69,636.84 226.01,638.59 229.02,639.4 L234.5,640.87 L242.5,640.93 L250.5,640.99 L254.07,640 ZM230.24,615.75 C229.08,614.51 226.98,611.03 225.58,608 L223.02,602.5 L223.01,598.18 L223,593.87 L224.08,591.86 L225.15,589.85 L223.16,590.92 L221.16,591.98 L219.98,595.56 L218.8,599.13 L219.48,602.82 C219.86,604.84 221.06,607.94 222.14,609.71 C224.32,613.25 229.54,618 231.25,618 L232.35,618 L230.24,615.75 ZM248.79,593.2 L256.49,590.5 L258.3,586.64 C259.3,584.52 259.87,582.54 259.58,582.24 C257.91,580.58 230,590.81 230,593.08 C230,593.52 231.01,594.61 232.25,595.49 L234.5,597.09 L237.79,596.49 C239.6,596.16 244.55,594.68 248.79,593.2 Z" style="fill:#000000;" />
		</g>
	</g>
</svg>